<svg width="211" height="235" viewBox="0 0 211 235" fill="none" xmlns="http://www.w3.org/2000/svg">
<path d="M208.245 153.112L185.628 134.099L167.106 94.5829L166.312 94.3621C166.824 92.8369 167.106 91.1766 167.106 89.4287V75.684C167.106 67.9797 161.68 61.8019 154.758 61.8019C147.837 61.8019 142.411 67.9792 142.411 75.684V87.7106L123.889 82.5564L109.072 70.1857C106.849 68.3989 103.886 68.3989 101.664 70.1857L86.8459 82.5564L68.3243 87.7106V75.684C68.3243 67.9797 62.8979 61.8019 55.9766 61.8019C49.0552 61.8019 43.6288 67.9792 43.6288 75.684V89.4287C43.6288 91.1761 43.9103 92.8364 44.4232 94.3621L43.6288 94.5829L25.1072 134.099L2.48987 153.112C-0.22704 155.448 -0.844427 159.709 1.25469 162.733C3.45794 165.921 7.39151 166.279 9.8981 164.107L12.7595 161.588V227.792C12.7595 231.64 15.4756 234.664 18.9334 234.664H37.455C44.2462 234.664 49.8027 228.479 49.8027 220.919V199.524C50.0501 198.286 52.6423 195.537 55.9766 193.338C59.0635 195.4 61.9031 198.149 62.1504 199.386V220.919C62.1504 228.479 67.7069 234.664 74.4982 234.664H86.8459C93.6371 234.664 99.1936 228.479 99.1936 220.919V199.524C99.441 198.286 102.033 195.537 105.367 193.338C108.454 195.4 111.294 198.149 111.541 199.386V220.919C111.541 228.479 117.098 234.664 123.889 234.664H136.237C143.028 234.664 148.585 228.479 148.585 220.919V199.524C148.832 198.286 151.424 195.537 154.758 193.338C157.845 195.4 160.685 198.149 160.932 199.386V220.919C160.932 228.479 166.489 234.664 173.28 234.664H191.802C195.259 234.664 197.976 231.64 197.976 227.792V161.588L200.837 164.108C203.351 166.285 207.283 165.912 209.48 162.734C211.579 159.709 210.962 155.448 208.245 153.112ZM185.38 46.133C185.134 45.4457 184.887 44.759 184.64 44.2087L159.944 2.97468C157.598 -0.873367 151.918 -0.873367 149.572 2.97468L124.877 44.2087C124.63 44.759 124.383 45.4462 124.136 46.133L154.758 59.8776L185.38 46.133ZM86.5985 46.133C86.352 45.4457 86.105 44.759 85.8577 44.2087L61.1622 2.97468C58.8161 -0.873367 53.1366 -0.873367 50.7905 2.97468L26.095 44.2087C25.8477 44.759 25.6007 45.4462 25.3542 46.133L55.9761 59.8776L86.5985 46.133Z" fill="url(#paint0_linear)"/>
<path d="M86.8462 48.0566C86.8462 47.3693 86.7228 46.6826 86.5989 46.1323H25.3549C25.2315 46.6826 25.1076 47.3698 25.1076 48.0566V134.098L86.8462 82.5557V48.0566ZM62.1508 89.428C62.1508 93.2761 59.4347 96.3004 55.9769 96.3004C52.5191 96.3004 49.803 93.2761 49.803 89.428V75.6834C49.803 71.8344 52.5191 68.811 55.9769 68.811C59.4347 68.811 62.1508 71.8344 62.1508 75.6834V89.428ZM185.381 46.1323H124.137C124.013 46.6826 123.889 47.3698 123.889 48.0566V82.5557L185.628 134.098V48.0566C185.628 47.3698 185.505 46.6826 185.381 46.1323ZM160.933 89.428C160.933 93.2761 158.217 96.3004 154.759 96.3004C151.301 96.3004 148.585 93.2761 148.585 89.428V75.6834C148.585 71.8344 151.301 68.811 154.759 68.811C158.217 68.811 160.933 71.8344 160.933 75.6834V89.428ZM117.716 123.79H111.542V116.917C111.542 113.119 108.78 110.045 105.368 110.045C101.955 110.045 99.194 113.119 99.194 116.917V123.79H93.0201C89.6076 123.79 86.8462 126.863 86.8462 130.662C86.8462 134.461 89.6076 137.534 93.0201 137.534H99.194V158.151C99.194 161.95 101.955 165.024 105.368 165.024C108.78 165.024 111.542 161.95 111.542 158.151V137.534H117.716C121.128 137.534 123.889 134.461 123.889 130.662C123.889 126.863 121.128 123.79 117.716 123.79ZM58.509 179.372C56.9055 178.567 55.0484 178.567 53.4444 179.372C50.7736 180.715 37.4553 187.963 37.4553 199.385V234.663H74.4985V199.385C74.4985 187.963 61.1802 180.715 58.509 179.372ZM107.9 179.372C106.296 178.567 104.439 178.567 102.835 179.372C100.165 180.715 86.8462 187.963 86.8462 199.385V234.663H123.889V199.385C123.889 187.963 110.571 180.715 107.9 179.372ZM157.291 179.372C155.687 178.567 153.83 178.567 152.226 179.372C149.555 180.715 136.237 187.963 136.237 199.385V234.663H173.28V199.385C173.28 187.963 159.962 180.715 157.291 179.372Z" fill="url(#paint1_linear)"/>
<defs>
<linearGradient id="paint0_linear" x1="105.367" y1="234.664" x2="105.367" y2="0.0882964" gradientUnits="userSpaceOnUse">
<stop stop-color="#0053B5"/>
<stop offset="1" stop-color="#8BB1CE"/>
</linearGradient>
<linearGradient id="paint1_linear" x1="105.368" y1="234.663" x2="105.368" y2="110.266" gradientUnits="userSpaceOnUse">
<stop stop-color="#C3FFE8"/>
<stop offset="0.9973" stop-color="#F0FFF4"/>
</linearGradient>
</defs>
</svg>
