<svg width="144" height="144" viewBox="0 0 144 144" fill="none" xmlns="http://www.w3.org/2000/svg">
<path d="M142.299 93.9371L126.844 82.2655L114.188 58.0077L113.645 57.8721C113.995 56.9358 114.188 55.9166 114.188 54.8436V46.4061C114.188 41.6766 110.48 37.8842 105.75 37.8842C101.021 37.8842 97.3125 41.6763 97.3125 46.4061V53.7889L84.6563 50.6249L74.5313 43.0308C73.0126 41.9339 70.9878 41.9339 69.4691 43.0308L59.3438 50.6249L46.6876 53.7889V46.4061C46.6876 41.6766 42.9796 37.8842 38.2501 37.8842C33.5206 37.8842 29.8126 41.6763 29.8126 46.4061V54.8436C29.8126 55.9163 30.005 56.9356 30.3554 57.8721L29.8126 58.0077L17.1563 82.2655L1.70139 93.9371C-0.155142 95.3712 -0.577017 97.9869 0.857357 99.8434C2.36289 101.8 5.05079 102.02 6.7636 100.687L8.71885 99.1406V139.781C8.71885 142.143 10.5748 144 12.9376 144H25.5938C30.2345 144 34.0313 140.203 34.0313 135.562V122.428C34.2004 121.668 35.9717 119.981 38.2501 118.631C40.3595 119.897 42.2998 121.584 42.4688 122.344V135.562C42.4688 140.203 46.2657 144 50.9063 144H59.3438C63.9844 144 67.7813 140.203 67.7813 135.562V122.428C67.9503 121.668 69.7217 119.981 72.0001 118.631C74.1094 119.897 76.0498 121.584 76.2188 122.344V135.562C76.2188 140.203 80.0157 144 84.6563 144H93.0938C97.7344 144 101.531 140.203 101.531 135.562V122.428C101.7 121.668 103.472 119.981 105.75 118.631C107.859 119.897 109.8 121.584 109.969 122.344V135.562C109.969 140.203 113.766 144 118.406 144H131.063C133.425 144 135.281 142.143 135.281 139.781V99.1406L137.237 100.687C138.954 102.024 141.641 101.795 143.143 99.8437C144.577 97.9871 144.155 95.3715 142.299 93.9371ZM126.675 28.2655C126.506 27.8436 126.338 27.422 126.168 27.0842L109.294 1.77167C107.69 -0.590556 103.809 -0.590556 102.206 1.77167L85.3313 27.0842C85.1623 27.422 84.9935 27.8439 84.8251 28.2655L105.75 36.703L126.675 28.2655ZM59.1748 28.2655C59.0063 27.8436 58.8376 27.422 58.6685 27.0842L41.7935 1.77167C40.1904 -0.590556 36.3095 -0.590556 34.7063 1.77167L17.8313 27.0842C17.6623 27.422 17.4936 27.8439 17.3251 28.2655L38.2498 36.703L59.1748 28.2655Z" fill="url(#paint0_linear)"/>
<path d="M59.3441 29.4463C59.3441 29.0245 59.2597 28.6029 59.1751 28.2651H17.3256C17.2413 28.6029 17.1566 29.0247 17.1566 29.4463V82.2651L59.3441 50.6245V29.4463ZM42.4691 54.8432C42.4691 57.2055 40.6131 59.062 38.2504 59.062C35.8876 59.062 34.0316 57.2055 34.0316 54.8432V46.4057C34.0316 44.0429 35.8876 42.187 38.2504 42.187C40.6131 42.187 42.4691 44.0429 42.4691 46.4057V54.8432ZM126.675 28.2651H84.8256C84.7412 28.6029 84.6566 29.0247 84.6566 29.4463V50.6245L126.844 82.2651V29.4463C126.844 29.0247 126.76 28.6029 126.675 28.2651V28.2651ZM109.969 54.8432C109.969 57.2055 108.113 59.062 105.75 59.062C103.388 59.062 101.532 57.2055 101.532 54.8432V46.4057C101.532 44.0429 103.388 42.187 105.75 42.187C108.113 42.187 109.969 44.0429 109.969 46.4057V54.8432ZM80.4378 75.937H76.2191V71.7183C76.2191 69.3864 74.3322 67.4995 72.0003 67.4995C69.6685 67.4995 67.7816 69.3864 67.7816 71.7183V75.937H63.5628C61.231 75.937 59.3441 77.8239 59.3441 80.1558C59.3441 82.4876 61.231 84.3745 63.5628 84.3745H67.7816V97.0308C67.7816 99.3626 69.6685 101.25 72.0003 101.25C74.3322 101.25 76.2191 99.3626 76.2191 97.0308V84.3745H80.4378C82.7697 84.3745 84.6566 82.4876 84.6566 80.1558C84.6566 77.8239 82.7697 75.937 80.4378 75.937ZM39.9806 110.058C38.8849 109.563 37.6159 109.563 36.5198 110.058C34.6948 110.882 25.5941 115.331 25.5941 122.343V144H50.9066V122.343C50.9066 115.331 41.8059 110.882 39.9806 110.058ZM73.7306 110.058C72.6348 109.563 71.3658 109.563 70.2698 110.058C68.4448 110.882 59.3441 115.331 59.3441 122.343V144H84.6566V122.343C84.6566 115.331 75.5559 110.882 73.7306 110.058ZM107.481 110.058C106.385 109.563 105.116 109.563 104.02 110.058C102.195 110.882 93.0941 115.331 93.0941 122.343V144H118.407V122.343C118.407 115.331 109.306 110.882 107.481 110.058Z" fill="url(#paint1_linear)"/>
<defs>
<linearGradient id="paint0_linear" x1="72.0001" y1="144" x2="72.0001" y2="-0.000214577" gradientUnits="userSpaceOnUse">
<stop stop-color="#0053B5"/>
<stop offset="1" stop-color="#8BB1CE"/>
</linearGradient>
<linearGradient id="paint1_linear" x1="72.0003" y1="144" x2="72.0003" y2="67.6353" gradientUnits="userSpaceOnUse">
<stop stop-color="#C3FFE8"/>
<stop offset="0.9973" stop-color="#F0FFF4"/>
</linearGradient>
</defs>
</svg>
