<svg width="512" height="512" viewBox="0 0 512 512" fill="none" xmlns="http://www.w3.org/2000/svg">
<path d="M505.951 333.999L451 292.5L406 206.25L404.07 205.768C405.315 202.439 406 198.815 406 195V165C406 148.183 392.816 134.699 376 134.699C359.184 134.699 346 148.182 346 165V191.25L301 180L265 152.998C259.6 149.098 252.401 149.098 247.001 152.998L211 180L166 191.25V165C166 148.183 152.816 134.699 136 134.699C119.184 134.699 106 148.182 106 165V195C106 198.814 106.684 202.438 107.93 205.768L106 206.25L61.0003 292.5L6.04938 333.999C-0.551616 339.098 -2.05161 348.398 3.04838 354.999C8.40138 361.956 17.9584 362.738 24.0484 357.998L31.0004 352.5V497C31.0004 505.399 37.5994 512 46.0004 512H91.0003C107.5 512 121 498.5 121 482V435.3C121.601 432.599 127.899 426.599 136 421.8C143.5 426.299 150.399 432.299 151 435V482C151 498.5 164.5 512 181 512H211C227.5 512 241 498.5 241 482V435.3C241.601 432.599 247.899 426.599 256 421.8C263.5 426.299 270.399 432.299 271 435V482C271 498.5 284.5 512 301 512H331C347.5 512 361 498.5 361 482V435.3C361.601 432.599 367.899 426.599 376 421.8C383.5 426.299 390.399 432.299 391 435V482C391 498.5 404.5 512 421 512H466C474.401 512 481 505.399 481 497V352.5L487.952 357.999C494.06 362.752 503.614 361.937 508.952 355C514.051 348.399 512.552 339.099 505.951 333.999ZM450.399 100.499C449.8 98.9994 449.2 97.5004 448.599 96.2994L388.599 6.29926C382.899 -2.09975 369.1 -2.09975 363.4 6.29926L303.4 96.2994C302.799 97.5004 302.199 99.0004 301.6 100.499L375.999 130.499L450.399 100.499ZM210.399 100.499C209.8 98.9994 209.2 97.5004 208.599 96.2994L148.599 6.29926C142.899 -2.09975 129.1 -2.09975 123.4 6.29926L63.4003 96.2994C62.7993 97.5004 62.1993 99.0004 61.6003 100.499L135.999 130.499L210.399 100.499Z" fill="url(#paint0_linear)"/>
<path d="M211.001 104.698C211.001 103.198 210.701 101.699 210.4 100.498H61.6021C61.3021 101.699 61.0011 103.199 61.0011 104.698V292.498L211.001 179.998V104.698ZM151.001 194.998C151.001 203.397 144.402 209.998 136.001 209.998C127.6 209.998 121.001 203.397 121.001 194.998V164.998C121.001 156.597 127.6 149.998 136.001 149.998C144.402 149.998 151.001 156.597 151.001 164.998V194.998ZM450.4 100.498H301.602C301.302 101.699 301.001 103.199 301.001 104.698V179.998L451.001 292.498V104.698C451.001 103.199 450.701 101.699 450.4 100.498V100.498ZM391.001 194.998C391.001 203.397 384.402 209.998 376.001 209.998C367.6 209.998 361.001 203.397 361.001 194.998V164.998C361.001 156.597 367.6 149.998 376.001 149.998C384.402 149.998 391.001 156.597 391.001 164.998V194.998ZM286.001 269.998H271.001V254.998C271.001 246.707 264.292 239.998 256.001 239.998C247.71 239.998 241.001 246.707 241.001 254.998V269.998H226.001C217.71 269.998 211.001 276.707 211.001 284.998C211.001 293.289 217.71 299.998 226.001 299.998H241.001V344.998C241.001 353.289 247.71 359.998 256.001 359.998C264.292 359.998 271.001 353.289 271.001 344.998V299.998H286.001C294.292 299.998 301.001 293.289 301.001 284.998C301.001 276.707 294.292 269.998 286.001 269.998ZM142.153 391.316C138.257 389.558 133.745 389.558 129.848 391.316C123.359 394.246 91.0011 410.066 91.0011 434.998V511.999H181.001V434.998C181.001 410.066 148.643 394.246 142.153 391.316ZM262.153 391.316C258.257 389.558 253.745 389.558 249.848 391.316C243.359 394.246 211.001 410.066 211.001 434.998V511.999H301.001V434.998C301.001 410.066 268.643 394.246 262.153 391.316ZM382.153 391.316C378.257 389.558 373.745 389.558 369.848 391.316C363.359 394.246 331.001 410.066 331.001 434.998V511.999H421.001V434.998C421.001 410.066 388.643 394.246 382.153 391.316Z" fill="url(#paint1_linear)"/>
<defs>
<linearGradient id="paint0_linear" x1="256" y1="512" x2="256" y2="-0.000762941" gradientUnits="userSpaceOnUse">
<stop stop-color="#0053B5"/>
<stop offset="1" stop-color="#8BB1CE"/>
</linearGradient>
<linearGradient id="paint1_linear" x1="256.001" y1="511.999" x2="256.001" y2="240.481" gradientUnits="userSpaceOnUse">
<stop stop-color="#C3FFE8"/>
<stop offset="0.9973" stop-color="#F0FFF4"/>
</linearGradient>
</defs>
</svg>
