<svg width="425" height="202" viewBox="0 0 425 202" fill="none" xmlns="http://www.w3.org/2000/svg">
<path d="M121.739 112.542L108.517 102.411L97.6893 81.3538L97.2249 81.2361C97.5245 80.4234 97.6893 79.5386 97.6893 78.6072V71.283C97.6893 67.1775 94.517 63.8855 90.4709 63.8855C86.4247 63.8855 83.2525 67.1773 83.2525 71.283V77.6917L72.4248 74.9451L63.7627 68.3531C62.4634 67.4009 60.7313 67.4009 59.4319 68.3531L50.7696 74.9451L39.942 77.6917V71.283C39.942 67.1775 36.7697 63.8855 32.7236 63.8855C28.6774 63.8855 25.5052 67.1773 25.5052 71.283V78.6072C25.5052 79.5384 25.6697 80.4231 25.9695 81.2361L25.5052 81.3538L14.6775 102.411L1.45557 112.542C-0.132726 113.787 -0.493647 116.058 0.733483 117.669C2.02149 119.368 4.32103 119.559 5.78637 118.402L7.45912 117.059V152.338C7.45912 154.388 9.04693 156 11.0683 156H21.8959C25.8661 156 29.1144 152.704 29.1144 148.676V137.274C29.259 136.615 30.7744 135.15 32.7236 133.978C34.5282 135.077 36.1882 136.541 36.3328 137.201V148.676C36.3328 152.704 39.5811 156 43.5512 156H50.7696C54.7397 156 57.988 152.704 57.988 148.676V137.274C58.1326 136.615 59.648 135.15 61.5972 133.978C63.4018 135.077 65.0618 136.541 65.2064 137.201V148.676C65.2064 152.704 68.4547 156 72.4248 156H79.6433C83.6134 156 86.8617 152.704 86.8617 148.676V137.274C87.0063 136.615 88.5217 135.15 90.4709 133.978C92.2755 135.077 93.9355 136.541 94.0801 137.201V148.676C94.0801 152.704 97.3284 156 101.299 156H112.126C114.148 156 115.735 154.388 115.735 152.338V117.059L117.408 118.402C118.878 119.562 121.177 119.363 122.461 117.67C123.688 116.058 123.327 113.788 121.739 112.542ZM108.372 55.5359C108.228 55.1697 108.084 54.8038 107.939 54.5105L93.5024 32.5379C92.1309 30.4874 88.8106 30.4874 87.4391 32.5379L73.0023 54.5105C72.8577 54.8038 72.7133 55.17 72.5692 55.5359L90.4706 62.8601L108.372 55.5359ZM50.625 55.5359C50.4809 55.1697 50.3365 54.8038 50.1919 54.5105L35.7551 32.5379C34.3836 30.4874 31.0633 30.4874 29.6918 32.5379L15.255 54.5105C15.1104 54.8038 14.966 55.17 14.8219 55.5359L32.7233 62.8601L50.625 55.5359Z" fill="url(#paint0_linear)"/>
<path d="M50.7698 56.561C50.7698 56.1948 50.6976 55.8288 50.6252 55.5356H14.8223C14.7502 55.8288 14.6777 56.195 14.6777 56.561V102.411L50.7698 74.9448V56.561ZM36.333 78.6069C36.333 80.6574 34.7452 82.269 32.7238 82.269C30.7024 82.269 29.1146 80.6574 29.1146 78.6069V71.2827C29.1146 69.2316 30.7024 67.6206 32.7238 67.6206C34.7452 67.6206 36.333 69.2316 36.333 71.2827V78.6069ZM108.373 55.5356H72.5697C72.4975 55.8288 72.425 56.195 72.425 56.561V74.9448L108.517 102.411V56.561C108.517 56.195 108.445 55.8288 108.373 55.5356ZM94.0803 78.6069C94.0803 80.6574 92.4925 82.269 90.4711 82.269C88.4497 82.269 86.8619 80.6574 86.8619 78.6069V71.2827C86.8619 69.2316 88.4497 67.6206 90.4711 67.6206C92.4925 67.6206 94.0803 69.2316 94.0803 71.2827V78.6069ZM68.8158 96.9174H65.2066V93.2553C65.2066 91.2311 63.5924 89.5932 61.5974 89.5932C59.6025 89.5932 57.9882 91.2311 57.9882 93.2553V96.9174H54.379C52.3841 96.9174 50.7698 98.5553 50.7698 100.58C50.7698 102.604 52.3841 104.242 54.379 104.242H57.9882V115.228C57.9882 117.252 59.6025 118.89 61.5974 118.89C63.5924 118.89 65.2066 117.252 65.2066 115.228V104.242H68.8158C70.8108 104.242 72.425 102.604 72.425 100.58C72.425 98.5553 70.8108 96.9174 68.8158 96.9174ZM34.204 126.536C33.2666 126.107 32.1809 126.107 31.2433 126.536C29.6819 127.251 21.8961 131.114 21.8961 137.201V155.999H43.5514V137.201C43.5514 131.114 35.7656 127.251 34.204 126.536ZM63.0777 126.536C62.1403 126.107 61.0546 126.107 60.1169 126.536C58.5556 127.251 50.7698 131.114 50.7698 137.201V155.999H72.425V137.201C72.425 131.114 64.6393 127.251 63.0777 126.536ZM91.9513 126.536C91.0139 126.107 89.9283 126.107 88.9906 126.536C87.4292 127.251 79.6435 131.114 79.6435 137.201V155.999H101.299V137.201C101.299 131.114 93.5129 127.251 91.9513 126.536Z" fill="url(#paint1_linear)"/>
<g filter="url(#filter0_d)">
<path d="M184.618 156.925C184.618 158.634 183.764 159.488 182.055 159.488C180.98 159.488 179.931 159.22 178.905 158.683C177.929 158.146 177.025 157.608 176.195 157.071C175.951 156.925 175.731 156.754 175.536 156.559C175.39 156.412 175.219 156.241 175.023 156.046C171.898 156.437 168.944 156.754 166.161 156.998C163.378 157.242 161.01 157.364 159.057 157.364C157.738 157.364 156.298 157.291 154.735 157.145C153.173 157.047 151.708 156.729 150.341 156.192C148.925 155.704 147.753 154.947 146.825 153.922C145.897 152.896 145.434 151.456 145.434 149.601C145.434 148.233 145.873 146.964 146.752 145.792C147.582 144.62 148.754 144.034 150.268 144.034C150.414 144.034 150.585 144.059 150.78 144.107C150.976 144.156 151.146 144.181 151.293 144.181C154.369 144.864 157.592 145.426 160.961 145.865C164.33 146.354 167.724 146.744 171.142 147.037C170.702 144.986 170.385 142.838 170.189 140.592C169.994 138.395 169.848 136.246 169.75 134.146C169.701 132.047 169.677 130.094 169.677 128.287C169.726 126.48 169.75 124.991 169.75 123.819C169.75 120.255 169.799 116.349 169.896 112.101C169.994 107.804 170.141 103.336 170.336 98.6973C170.58 94.0098 170.873 89.2246 171.215 84.3418C171.605 79.4102 172.045 74.5273 172.533 69.6934C173.07 64.8105 173.681 60.0742 174.364 55.4844C175.097 50.8457 175.927 46.4756 176.854 42.374C172.704 42.96 168.676 43.668 164.77 44.498C160.863 45.2793 157.274 46.1582 154.003 47.1348C153.71 47.2324 153.441 47.2812 153.197 47.2812C152.953 47.2812 152.709 47.2812 152.465 47.2812C151.732 47.2812 151.073 47.1104 150.487 46.7686C149.853 46.4268 149.34 45.9873 148.949 45.4502C148.559 44.9131 148.266 44.3027 148.07 43.6191C147.826 42.9355 147.704 42.252 147.704 41.5684C147.704 40.1035 148.07 38.8828 148.803 37.9062C149.486 36.9297 150.39 36.124 151.513 35.4893C152.636 34.8545 153.905 34.3906 155.321 34.0977C156.786 33.8047 158.251 33.585 159.716 33.4385C161.181 33.292 162.572 33.2188 163.891 33.2188C165.258 33.2188 166.454 33.2188 167.479 33.2188C168.993 33.2188 170.751 33.2676 172.753 33.3652C174.755 33.4141 176.879 33.5361 179.125 33.7314C179.369 32.8525 179.638 32.0225 179.931 31.2412C180.224 30.4111 180.517 29.6055 180.81 28.8242L182.348 29.4834C182.152 30.46 181.933 31.9492 181.688 33.9512C184.228 34.1953 186.815 34.4883 189.452 34.8301C192.089 35.123 194.604 35.5137 196.996 36.002C199.389 36.4902 201.586 37.0518 203.588 37.6865C205.59 38.2725 207.25 38.9316 208.568 39.6641L207.836 40.8359C206.615 40.6895 205.37 40.6162 204.101 40.6162C202.88 40.5674 201.684 40.543 200.512 40.543C197.582 40.543 194.457 40.665 191.137 40.9092C187.816 41.1533 184.398 41.4707 180.883 41.8613C180.639 45.1328 180.395 48.8193 180.15 52.9209C179.906 56.9736 179.687 61.3193 179.491 65.958C179.345 70.5967 179.223 75.4062 179.125 80.3867C179.027 85.3672 178.979 90.3965 178.979 95.4746C178.979 100.504 179.027 105.484 179.125 110.416C179.223 115.348 179.394 120.06 179.638 124.552C179.931 129.044 180.272 133.243 180.663 137.149C181.103 141.104 181.615 144.596 182.201 147.623C183.52 147.672 184.813 147.696 186.083 147.696C187.401 147.745 188.695 147.77 189.965 147.77C192.553 147.77 195.165 147.696 197.802 147.55C200.438 147.452 203.026 147.135 205.565 146.598L206.298 147.77C205.272 148.502 203.954 149.186 202.343 149.82C200.78 150.455 199.022 151.065 197.069 151.651C195.165 152.237 193.09 152.774 190.844 153.263C188.646 153.8 186.4 154.264 184.105 154.654C184.252 155.045 184.374 155.411 184.472 155.753C184.569 156.144 184.618 156.534 184.618 156.925ZM265.258 123.526C264.477 125.138 263.5 126.603 262.328 127.921C261.156 129.19 259.838 130.289 258.373 131.217C256.908 132.096 255.346 132.779 253.686 133.268C252.025 133.756 250.292 134 248.485 134C244.677 134 241.43 133.072 238.744 131.217C236.107 129.361 233.886 126.944 232.079 123.966C230.761 125.431 229.296 126.896 227.685 128.36C226.122 129.776 224.438 131.046 222.631 132.169C220.873 133.243 219.042 134.122 217.138 134.806C215.233 135.489 213.329 135.831 211.425 135.831C209.13 135.831 207.079 135.367 205.272 134.439C203.466 133.512 201.928 132.291 200.658 130.777C199.389 129.215 198.412 127.457 197.729 125.504C197.045 123.502 196.703 121.427 196.703 119.278C196.703 116.056 197.411 112.809 198.827 109.537C200.292 106.266 202.196 103.312 204.54 100.675C206.933 97.9893 209.667 95.8164 212.743 94.1562C215.819 92.4961 219.018 91.666 222.338 91.666C223.314 91.666 224.169 91.7637 224.901 91.959V88.8828C224.901 87.4668 224.95 85.5869 225.048 83.2432C225.146 80.8994 225.341 78.3115 225.634 75.4795C225.927 72.5986 226.293 69.5957 226.732 66.4707C227.221 63.2969 227.831 60.1719 228.563 57.0957C229.345 53.9707 230.248 51.0166 231.273 48.2334C232.299 45.4014 233.495 42.9355 234.862 40.8359C236.229 38.6875 237.792 36.9785 239.55 35.709C241.308 34.4395 243.285 33.8047 245.482 33.8047C248.07 33.8047 250.17 34.5615 251.781 36.0752C253.393 37.5889 254.662 39.4687 255.59 41.7148C256.518 43.9121 257.128 46.2559 257.421 48.7461C257.763 51.2363 257.934 53.458 257.934 55.4111C257.934 57.9502 257.689 60.9043 257.201 64.2734C256.713 67.5938 256.029 71.1338 255.15 74.8936C254.271 78.6045 253.222 82.4131 252.001 86.3193C250.78 90.2256 249.462 93.9854 248.046 97.5986C246.63 101.212 245.092 104.581 243.432 107.706C241.82 110.782 240.185 113.395 238.524 115.543C239.159 117.447 239.916 119.205 240.795 120.816C241.723 122.428 242.797 123.819 244.018 124.991C245.238 126.163 246.63 127.091 248.192 127.774C249.755 128.409 251.537 128.727 253.539 128.727C258.129 128.727 261.889 126.896 264.818 123.233L265.258 123.526ZM235.229 82.7305C235.229 84.4883 235.229 86.5391 235.229 88.8828C235.229 91.1777 235.277 93.6191 235.375 96.207C235.521 98.7949 235.741 101.456 236.034 104.19C236.376 106.876 236.864 109.488 237.499 112.027C239.55 108.072 241.43 103.751 243.139 99.0635C244.848 94.3271 246.312 89.4932 247.533 84.5615C248.803 79.5811 249.779 74.625 250.463 69.6934C251.146 64.7617 251.488 60.0986 251.488 55.7041C251.488 54.7764 251.439 53.4336 251.342 51.6758C251.244 49.918 250.976 48.1846 250.536 46.4756C250.097 44.7178 249.438 43.2041 248.559 41.9346C247.68 40.6162 246.483 39.957 244.97 39.957C243.798 39.957 242.748 40.5186 241.82 41.6416C240.893 42.7158 240.087 44.1807 239.403 46.0361C238.72 47.8428 238.134 49.918 237.646 52.2617C237.206 54.6055 236.815 57.0469 236.474 59.5859C236.181 62.125 235.937 64.6396 235.741 67.1299C235.595 69.6201 235.473 71.9395 235.375 74.0879C235.326 76.1875 235.277 78.0186 235.229 79.5811C235.229 81.0947 235.229 82.1445 235.229 82.7305ZM216.771 127.848C219.555 127.848 222.118 127.311 224.462 126.236C226.854 125.162 229.027 123.746 230.98 121.988C230.053 120.182 229.247 118.253 228.563 116.202C227.929 114.103 227.367 112.003 226.879 109.903C226.439 107.755 226.073 105.606 225.78 103.458C225.536 101.31 225.341 99.2344 225.194 97.2324C224.608 96.5977 223.876 96.085 222.997 95.6943C222.118 95.2549 221.044 95.0352 219.774 95.0352C217.479 95.0352 215.429 95.6699 213.622 96.9395C211.864 98.1602 210.375 99.7227 209.154 101.627C207.934 103.482 207.006 105.533 206.371 107.779C205.736 109.977 205.419 112.076 205.419 114.078C205.419 115.934 205.614 117.716 206.005 119.425C206.444 121.085 207.128 122.55 208.056 123.819C208.983 125.04 210.155 126.017 211.571 126.749C213.036 127.481 214.77 127.848 216.771 127.848ZM278.734 74.8936C278.734 75.8701 278.515 76.8467 278.075 77.8232C277.636 78.7998 277.05 79.6787 276.317 80.46C275.634 81.1924 274.828 81.8027 273.9 82.291C272.973 82.7793 272.021 83.0234 271.044 83.0234C269.774 83.0234 268.749 82.6084 267.968 81.7783C267.235 80.9482 266.869 79.8984 266.869 78.6289C266.869 77.6523 267.089 76.7002 267.528 75.7725C267.968 74.7959 268.529 73.9414 269.213 73.209C269.945 72.4766 270.751 71.8906 271.63 71.4512C272.558 70.9629 273.51 70.7188 274.486 70.7188C275.756 70.7188 276.781 71.1094 277.562 71.8906C278.344 72.6719 278.734 73.6729 278.734 74.8936ZM299.242 123.526C298.119 125.382 296.776 127.091 295.214 128.653C293.7 130.167 292.016 131.51 290.16 132.682C288.354 133.805 286.4 134.684 284.301 135.318C282.25 135.953 280.126 136.271 277.929 136.271C275.194 136.271 272.753 135.807 270.604 134.879C268.505 133.951 266.723 132.682 265.258 131.07C263.842 129.41 262.743 127.481 261.962 125.284C261.229 123.038 260.863 120.597 260.863 117.96C260.863 115.128 261.278 112.442 262.108 109.903C262.938 107.364 264.086 104.996 265.551 102.799C267.016 100.553 268.725 98.502 270.678 96.6465C272.68 94.791 274.804 93.1309 277.05 91.666L277.929 92.3252C275.536 95.1572 273.583 98.3311 272.069 101.847C270.604 105.362 269.872 109.024 269.872 112.833C269.872 115.03 270.116 117.154 270.604 119.205C271.142 121.207 271.947 122.989 273.021 124.552C274.145 126.114 275.561 127.359 277.27 128.287C278.979 129.215 281.054 129.679 283.495 129.679C286.376 129.679 289.11 129.068 291.698 127.848C294.335 126.627 296.703 125.089 298.803 123.233L299.242 123.526ZM334.618 156.485C334.618 160.44 334.154 164.469 333.227 168.57C332.299 172.721 330.834 176.529 328.832 179.996C326.83 183.463 324.242 186.393 321.068 188.785C317.943 191.178 314.159 192.667 309.716 193.253C309.276 193.351 308.861 193.424 308.471 193.473C308.08 193.521 307.641 193.546 307.152 193.546C304.467 193.546 301.928 193.009 299.535 191.935C297.143 190.86 295.043 189.396 293.236 187.54C291.479 185.733 290.087 183.609 289.062 181.168C288.036 178.775 287.523 176.261 287.523 173.624C287.523 170.694 288.134 167.887 289.354 165.201C290.526 162.516 292.089 160.025 294.042 157.73C295.995 155.484 298.192 153.482 300.634 151.725C303.124 150.016 305.663 148.648 308.251 147.623L308.69 148.575C303.954 151.114 300.292 154.605 297.704 159.049C295.116 163.492 293.822 168.399 293.822 173.771C293.822 175.968 294.115 178.092 294.701 180.143C295.336 182.242 296.264 184.073 297.484 185.636C298.705 187.198 300.219 188.443 302.025 189.371C303.881 190.348 306.005 190.836 308.397 190.836C311.767 190.836 314.574 189.957 316.82 188.199C319.066 186.441 320.849 184.244 322.167 181.607C323.534 178.971 324.486 176.09 325.023 172.965C325.609 169.889 325.902 167.008 325.902 164.322C325.902 161.979 325.756 159.684 325.463 157.438C325.17 155.191 324.853 152.945 324.511 150.699C324.218 148.502 323.925 146.28 323.632 144.034C323.339 141.788 323.192 139.493 323.192 137.149C323.192 135.489 323.241 133.78 323.339 132.022C323.485 130.265 323.729 128.482 324.071 126.676C321.923 129.215 319.433 131.388 316.601 133.194C313.817 134.952 310.814 135.831 307.592 135.831C305.59 135.831 303.783 135.44 302.172 134.659C300.609 133.927 299.267 132.926 298.144 131.656C297.069 130.387 296.239 128.897 295.653 127.188C295.116 125.431 294.848 123.6 294.848 121.695C294.848 119.498 295.189 117.228 295.873 114.884C296.605 112.491 297.582 110.196 298.803 107.999C300.072 105.753 301.562 103.653 303.271 101.7C304.979 99.6982 306.835 97.9648 308.837 96.5C310.888 94.9863 313.036 93.8145 315.282 92.9844C317.528 92.1055 319.823 91.666 322.167 91.666C323.339 91.666 324.511 91.8369 325.683 92.1787C326.903 92.4717 328.002 92.9355 328.979 93.5703C330.004 94.2051 330.81 95.0107 331.396 95.9873C332.03 96.9639 332.348 98.1357 332.348 99.5029C332.348 100.479 332.128 101.358 331.688 102.14C331.249 102.921 330.688 103.629 330.004 104.264C329.32 104.85 328.563 105.387 327.733 105.875C326.903 106.363 326.098 106.778 325.316 107.12L325.023 106.241C325.414 105.802 325.683 105.265 325.829 104.63C325.976 103.995 326.049 103.385 326.049 102.799C326.049 101.92 325.902 101.041 325.609 100.162C325.365 99.2344 324.975 98.4043 324.438 97.6719C323.949 96.8906 323.314 96.2559 322.533 95.7676C321.752 95.2793 320.873 95.0352 319.896 95.0352C317.406 95.0352 315.16 95.7188 313.158 97.0859C311.156 98.4043 309.447 100.089 308.031 102.14C306.664 104.19 305.59 106.437 304.809 108.878C304.076 111.271 303.71 113.541 303.71 115.689C303.71 117.105 303.832 118.546 304.076 120.011C304.369 121.476 304.833 122.794 305.468 123.966C306.103 125.138 306.957 126.114 308.031 126.896C309.154 127.628 310.57 127.994 312.279 127.994C314.916 127.994 317.357 127.311 319.604 125.943C321.85 124.527 323.852 122.867 325.609 120.963C326.293 119.01 327.172 117.179 328.246 115.47C329.369 113.712 330.736 112.198 332.348 110.929L333.593 111.808C332.47 113.614 331.737 115.665 331.396 117.96C331.054 120.255 330.883 122.501 330.883 124.698C330.883 127.286 331.078 129.874 331.469 132.462C331.859 135.05 332.274 137.662 332.714 140.299C333.202 142.936 333.642 145.597 334.032 148.282C334.423 150.968 334.618 153.702 334.618 156.485ZM358.715 74.8936C358.715 75.8701 358.495 76.8467 358.056 77.8232C357.616 78.7998 357.03 79.6787 356.298 80.46C355.614 81.1924 354.809 81.8027 353.881 82.291C352.953 82.7793 352.001 83.0234 351.024 83.0234C349.755 83.0234 348.729 82.6084 347.948 81.7783C347.216 80.9482 346.85 79.8984 346.85 78.6289C346.85 77.6523 347.069 76.7002 347.509 75.7725C347.948 74.7959 348.51 73.9414 349.193 73.209C349.926 72.4766 350.731 71.8906 351.61 71.4512C352.538 70.9629 353.49 70.7188 354.467 70.7188C355.736 70.7188 356.762 71.1094 357.543 71.8906C358.324 72.6719 358.715 73.6729 358.715 74.8936ZM379.223 123.526C378.1 125.382 376.757 127.091 375.194 128.653C373.681 130.167 371.996 131.51 370.141 132.682C368.334 133.805 366.381 134.684 364.281 135.318C362.23 135.953 360.106 136.271 357.909 136.271C355.175 136.271 352.733 135.807 350.585 134.879C348.485 133.951 346.703 132.682 345.238 131.07C343.822 129.41 342.724 127.481 341.942 125.284C341.21 123.038 340.844 120.597 340.844 117.96C340.844 115.128 341.259 112.442 342.089 109.903C342.919 107.364 344.066 104.996 345.531 102.799C346.996 100.553 348.705 98.502 350.658 96.6465C352.66 94.791 354.784 93.1309 357.03 91.666L357.909 92.3252C355.517 95.1572 353.563 98.3311 352.05 101.847C350.585 105.362 349.853 109.024 349.853 112.833C349.853 115.03 350.097 117.154 350.585 119.205C351.122 121.207 351.928 122.989 353.002 124.552C354.125 126.114 355.541 127.359 357.25 128.287C358.959 129.215 361.034 129.679 363.476 129.679C366.356 129.679 369.091 129.068 371.679 127.848C374.315 126.627 376.684 125.089 378.783 123.233L379.223 123.526ZM416.576 118.253C416.576 120.792 416.112 123.185 415.185 125.431C414.257 127.677 412.963 129.63 411.303 131.29C409.643 132.95 407.689 134.269 405.443 135.245C403.246 136.222 400.854 136.71 398.266 136.71C396.557 136.71 394.872 136.441 393.212 135.904C391.552 135.367 390.014 134.61 388.598 133.634C387.23 132.608 386.034 131.388 385.009 129.972C383.983 128.556 383.251 126.993 382.812 125.284L384.496 124.845C385.766 126.407 387.23 127.701 388.891 128.727C390.6 129.752 392.528 130.265 394.677 130.265C396.483 130.265 398.144 129.874 399.657 129.093C401.22 128.312 402.538 127.286 403.612 126.017C404.735 124.747 405.59 123.282 406.176 121.622C406.811 119.913 407.128 118.18 407.128 116.422C407.128 114.322 406.835 112.589 406.249 111.222C405.663 109.806 404.882 108.634 403.905 107.706C402.978 106.729 401.928 105.899 400.756 105.216C399.584 104.483 398.388 103.751 397.167 103.019C395.995 102.286 394.848 101.456 393.725 100.528C392.65 99.6006 391.723 98.4043 390.941 96.9395C390.893 99.8203 390.404 102.848 389.477 106.021C388.549 109.195 387.279 112.271 385.668 115.25C384.105 118.229 382.299 121.012 380.248 123.6C378.197 126.188 376.024 128.36 373.729 130.118L373.144 129.093C374.706 127.433 376.073 125.357 377.245 122.867C378.417 120.377 379.369 117.765 380.102 115.03C380.883 112.247 381.444 109.464 381.786 106.681C382.177 103.897 382.372 101.358 382.372 99.0635C382.372 97.8428 382.25 96.6465 382.006 95.4746C381.762 94.3027 381.64 93.1553 381.64 92.0322C381.64 90.665 382.03 89.6152 382.812 88.8828C383.642 88.1504 384.691 87.7842 385.961 87.7842C386.938 87.7842 387.719 88.0039 388.305 88.4434C388.891 88.8828 389.428 89.4688 389.916 90.2012C390.404 90.8848 390.893 91.6904 391.381 92.6182C391.869 93.4971 392.479 94.4248 393.212 95.4014C393.993 96.3291 394.945 97.2568 396.068 98.1846C397.24 99.0635 398.729 99.8447 400.536 100.528C402.636 101.31 404.638 102.213 406.542 103.238C408.495 104.215 410.204 105.387 411.669 106.754C413.183 108.121 414.379 109.757 415.258 111.661C416.137 113.517 416.576 115.714 416.576 118.253Z" fill="url(#paint2_linear)"/>
</g>
<defs>
<filter id="filter0_d" x="141.434" y="28.8242" width="279.143" height="172.722" filterUnits="userSpaceOnUse" color-interpolation-filters="sRGB">
<feFlood flood-opacity="0" result="BackgroundImageFix"/>
<feColorMatrix in="SourceAlpha" type="matrix" values="0 0 0 0 0 0 0 0 0 0 0 0 0 0 0 0 0 0 127 0"/>
<feOffset dy="4"/>
<feGaussianBlur stdDeviation="2"/>
<feColorMatrix type="matrix" values="0 0 0 0 0 0 0 0 0 0 0 0 0 0 0 0 0 0 0.25 0"/>
<feBlend mode="normal" in2="BackgroundImageFix" result="effect1_dropShadow"/>
<feBlend mode="normal" in="SourceGraphic" in2="effect1_dropShadow" result="shape"/>
</filter>
<linearGradient id="paint0_linear" x1="61.5972" y1="156" x2="61.5972" y2="30.9998" gradientUnits="userSpaceOnUse">
<stop stop-color="#0053B5"/>
<stop offset="1" stop-color="#8BB1CE"/>
</linearGradient>
<linearGradient id="paint1_linear" x1="61.5974" y1="155.999" x2="61.5974" y2="89.7111" gradientUnits="userSpaceOnUse">
<stop stop-color="#C3FFE8"/>
<stop offset="0.9973" stop-color="#F0FFF4"/>
</linearGradient>
<linearGradient id="paint2_linear" x1="288" y1="185" x2="288" y2="-0.000275672" gradientUnits="userSpaceOnUse">
<stop stop-color="#0053B5"/>
<stop offset="1" stop-color="#8BB1CE"/>
</linearGradient>
</defs>
</svg>
